<svg viewBox="0 0 45.932 58" xmlns="http://www.w3.org/2000/svg"><path d="M1 6.793V4.288A3.291 3.291 0 014.287 1H28.61a3.291 3.291 0 013.287 3.288v2.505H1zM4.287 57A3.29 3.29 0 011 53.713v-8.3h30.896v8.3A3.29 3.29 0 0128.61 57H4.287z" fill="#FFF"/><path fill="#C0DFCF" d="M1 45.413V6.793h30.896v5.794H14.518V30.93h3.86v5.793l7.726-5.793h5.793v14.482z"/><path fill="#ECE9E6" d="M44.932 30.93h-19.19l-7.12 5.19v-5.19h-4.104V12.588h30.414z"/><path d="M28.61 58H4.286A4.292 4.292 0 010 53.713V4.288A4.292 4.292 0 014.287 0H28.61a4.292 4.292 0 014.287 4.288v9.299H15.518V29.93h3.86v4.793l6.393-4.793h7.126v23.782A4.292 4.292 0 0128.609 58zM4.286 2A2.29 2.29 0 002 4.288v49.425A2.29 2.29 0 004.287 56H28.61a2.29 2.29 0 002.287-2.287V31.93h-4.46l-9.057 6.793V31.93h-3.861V11.587h17.378V4.288A2.29 2.29 0 0028.61 2H4.287z" fill="#43525B"/><path d="M31.896 46.413H1a1 1 0 110-2h30.896a1 1 0 110 2zm0-38.62H1a1 1 0 110-2h30.896a1 1 0 110 2zM45.932 31.93H32.38v-2h11.55V13.588H32.38v-2h13.55V31.93zM18.38 4.896h-3.86a1 1 0 110-2h3.862a1 1 0 110 2z" fill="#43525B"/><circle cx="16.45" cy="51.207" fill="#D6D6D6" r="1.931"/><path d="M16.45 54.138a2.934 2.934 0 01-2.931-2.931c0-1.616 1.314-2.93 2.93-2.93s2.932 1.314 2.932 2.93a2.935 2.935 0 01-2.932 2.93zm0-3.862a.932.932 0 00-.931.931.932.932 0 001.862 0 .932.932 0 00-.932-.93zm24.62-29.931h-9.655v-2h9.655v2zm0 4.828H30.611v-2h10.46v2z" fill="#43525B"/><path d="M23.917 18.683a2.534 2.534 0 00-2.316-1.516c-1.395 0-2.4 1.154-2.527 2.527 0 0-.066.34.08.954.206.837.688 1.577 1.332 2.146l3.431 2.951 3.366-2.951c.649-.57 1.128-1.309 1.334-2.146.149-.615.082-.954.082-.954-.126-1.373-1.13-2.527-2.527-2.527-1.035 0-1.867.624-2.255 1.516z" fill="#FFA8A6"/><path d="M23.917 26.645a.902.902 0 01-.587-.217l-3.43-2.951c-.82-.724-1.377-1.625-1.62-2.615-.18-.752-.113-1.217-.089-1.34.164-1.817 1.635-3.255 3.41-3.255.868 0 1.684.33 2.304.893a3.287 3.287 0 012.267-.893c1.776 0 3.249 1.438 3.424 3.345.01.034.077.5-.104 1.246-.245.997-.804 1.9-1.615 2.613l-3.366 2.95a.902.902 0 01-.594.224zm-2.316-8.578c-.967 0-1.552.86-1.63 1.71-.01.063-.033.275.058.661.155.627.519 1.21 1.053 1.681l2.83 2.434 2.777-2.436c.534-.468.898-1.05 1.054-1.684.093-.382.069-.594.068-.596-.086-.91-.671-1.77-1.64-1.77-.629 0-1.163.365-1.429.975a.9.9 0 01-.822.541h-.003a.9.9 0 01-.823-.537 1.636 1.636 0 00-1.493-.979z" fill="#43525B"/></svg>