<svg viewBox="0 0 30 30" xmlns="http://www.w3.org/2000/svg"><path fill="none" stroke="#000" stroke-width="2" stroke-linecap="round" stroke-miterlimit="10" d="M4 26l2.5-2.5"/><path d="M19 16l7.414-7.414a2 2 0 000-2.828l-2.172-2.172a2 2 0 00-2.828 0L14 11l5 5zm-8.239 8.239L17 18l-5-5-6.241 6.241a4.004 4.004 0 00-1.036 1.795l-.65 2.429 2.595 2.42 2.291-.608a4.01 4.01 0 001.802-1.038z"/><path d="M25 8l1.379-1.379a2.12 2.12 0 000-2.998l-.002-.002a2.12 2.12 0 00-2.998 0L22 5l3 3z"/><circle cx="6" cy="24" r="2"/><path d="M22 5l-1.285-1.285a2.424 2.424 0 00-3.429 0L17 4c-1 1-2.5 3.5-4 5" fill="none" stroke="#000" stroke-width="2" stroke-linecap="round" stroke-miterlimit="10"/></svg>