<svg viewBox="0 0 30 30" xmlns="http://www.w3.org/2000/svg"><circle cx="22" cy="25" r="2"/><circle cx="12" cy="25" r="2"/><path d="M2 3h1.878a1.5 1.5 0 011.439 1.077l4.261 14.488A2 2 0 0011.496 20h10.976c.902 0 1.692-.604 1.93-1.474L27 9h-5" fill="none" stroke="#000" stroke-width="2" stroke-linecap="round" stroke-linejoin="round" stroke-miterlimit="10"/><path d="M18 9v5.586l2.293-2.293a.999.999 0 111.414 1.414l-4 4a.997.997 0 01-1.414 0l-4-4a.999.999 0 111.414-1.414L16 14.586V9H7l3.5 11H24l3-11h-9zm0-6a1 1 0 00-2 0v5h2V3z"/><path fill="none" stroke="#000" stroke-width="2" stroke-linejoin="round" stroke-miterlimit="10" d="M18 9h5M7 9h9"/></svg>